<?xml version="1.0" standalone="no"?>
<!DOCTYPE svg PUBLIC "-//W3C//DTD SVG 20010904//EN"
 "http://www.w3.org/TR/2001/REC-SVG-20010904/DTD/svg10.dtd">
<svg version="1.0" xmlns="http://www.w3.org/2000/svg"
 width="250.000000pt" height="108.000000pt" viewBox="0 0 250.000000 108.000000"
 preserveAspectRatio="xMidYMid meet">

<g transform="translate(0.000000,108.000000) scale(0.100000,-0.100000)"
fill="#000000" stroke="none">
<path d="M2105 960 c-136 -19 -218 -127 -219 -285 -1 -72 3 -88 33 -149 26
-53 43 -74 78 -96 81 -52 192 -62 304 -28 l39 11 0 92 c0 93 8 115 41 115 10
0 21 5 24 10 4 6 -32 10 -99 10 -64 0 -106 -4 -106 -10 0 -5 11 -10 24 -10 39
0 47 -21 44 -112 l-3 -83 -75 0 c-91 0 -141 23 -183 81 -58 82 -58 249 0 342
40 65 72 85 142 90 78 6 128 -17 150 -70 23 -55 42 -50 35 10 -8 70 -9 70 -61
77 -93 11 -119 12 -168 5z"/>
<path d="M956 911 c-9 -66 -7 -81 9 -81 8 0 15 9 15 20 0 12 11 32 25 45 21
22 33 25 90 25 l65 0 0 -228 c0 -248 -5 -272 -56 -272 -13 0 -24 -4 -24 -10 0
-6 45 -10 115 -10 70 0 115 4 115 10 0 6 -11 10 -24 10 -54 0 -56 11 -56 266
l0 234 63 0 c73 0 102 -16 112 -60 4 -18 13 -30 22 -30 12 0 14 8 9 38 -3 20
-6 48 -6 62 l0 25 -234 0 -234 0 -6 -44z"/>
<path d="M1560 940 c0 -5 9 -10 19 -10 48 0 51 -16 51 -259 0 -240 -2 -251
-47 -251 -13 0 -23 -4 -23 -10 0 -6 42 -10 105 -10 63 0 105 4 105 10 0 6 -9
10 -19 10 -45 0 -51 31 -51 247 0 111 4 213 10 227 5 14 20 28 35 32 54 14 20
24 -80 24 -63 0 -105 -4 -105 -10z"/>
<path d="M87 203 c-4 -3 -7 -11 -7 -17 0 -6 5 -5 12 2 24 24 30 11 26 -52 -3
-53 -1 -62 12 -59 12 3 14 16 12 63 -4 59 3 71 26 48 9 -9 12 -8 12 5 0 13 -9
17 -43 17 -24 0 -47 -3 -50 -7z"/>
<path d="M358 145 c-2 -53 0 -65 12 -65 11 0 15 11 15 37 0 27 4 38 15 38 11
0 15 -11 15 -38 0 -20 5 -37 10 -37 6 0 9 19 6 46 -3 42 -5 46 -27 41 -20 -3
-24 0 -24 19 0 13 -4 24 -9 24 -5 0 -11 -29 -13 -65z"/>
<path d="M655 145 c0 -37 4 -65 10 -65 6 0 9 26 7 65 -5 84 -17 84 -17 0z"/>
<path d="M1025 142 c0 -56 3 -68 15 -65 22 6 22 133 0 133 -12 0 -15 -14 -15
-68z"/>
<path d="M1630 194 c0 -8 5 -12 10 -9 6 4 8 11 5 16 -9 14 -15 11 -15 -7z"/>
<path d="M1937 198 c-30 -23 -32 -71 -5 -103 20 -23 30 -27 51 -21 22 5 27 12
27 36 0 20 -5 30 -15 30 -11 0 -14 -7 -9 -24 7 -31 -7 -39 -34 -20 -24 16 -29
53 -12 85 12 21 46 26 53 7 2 -7 8 -10 12 -6 12 11 -5 28 -29 28 -12 0 -30 -6
-39 -12z"/>
<path d="M1183 178 c-4 -7 -6 -29 -4 -48 3 -39 24 -69 35 -51 4 6 2 11 -3 11
-13 0 -15 67 -2 72 5 2 3 9 -4 15 -11 10 -16 10 -22 1z"/>
<path d="M1569 178 c-5 -63 18 -127 35 -99 4 6 2 11 -3 11 -6 0 -11 16 -11 35
0 19 5 35 11 35 6 0 4 7 -5 15 -18 18 -26 19 -27 3z"/>
<path d="M290 160 c-11 -11 -20 -29 -20 -40 0 -24 44 -55 62 -44 9 6 5 10 -12
14 -20 5 -25 12 -25 35 0 25 4 30 23 29 25 -1 30 11 7 20 -9 3 -24 -3 -35 -14z"/>
<path d="M570 160 c-24 -24 -25 -38 -4 -68 20 -29 40 -28 60 3 31 48 -17 104
-56 65z m48 -28 c5 -32 -16 -56 -34 -41 -15 12 -19 51 -7 63 14 13 38 0 41
-22z"/>
<path d="M717 169 c-24 -14 -23 -75 2 -89 26 -14 50 -3 57 26 11 45 -24 82
-59 63z m41 -45 c2 -21 -2 -33 -12 -37 -20 -8 -39 27 -31 54 10 31 39 19 43
-17z"/>
<path d="M804 163 c-17 -17 -18 -25 -4 -39 8 -8 7 -19 0 -39 -18 -48 20 -73
54 -36 21 23 14 41 -15 41 -24 0 -25 16 0 23 10 2 20 16 23 30 4 21 0 26 -19
30 -13 2 -31 -2 -39 -10z m36 -23 c0 -11 -7 -20 -15 -20 -8 0 -15 9 -15 20 0
11 7 20 15 20 8 0 15 -9 15 -20z m10 -75 c0 -8 -9 -15 -20 -15 -11 0 -20 7
-20 15 0 8 9 15 20 15 11 0 20 -7 20 -15z"/>
<path d="M1337 169 c-22 -13 -18 -118 5 -133 20 -12 48 8 48 35 0 13 -7 19
-22 19 -19 0 -23 6 -26 36 -1 25 2 34 10 31 7 -2 13 -14 12 -26 -1 -32 13 -25
18 8 5 32 -16 46 -45 30z m38 -98 c3 -5 1 -13 -5 -16 -15 -9 -43 3 -35 15 8
13 32 13 40 1z"/>
<path d="M1692 164 c-27 -19 -28 -55 -3 -78 29 -26 61 -6 61 39 0 44 -27 61
-58 39z m43 -24 c3 -10 1 -29 -5 -40 -9 -17 -14 -19 -26 -9 -14 12 -19 51 -7
62 13 13 32 7 38 -13z"/>
<path d="M202 158 c-28 -28 1 -97 35 -84 8 3 18 6 21 7 4 1 -4 4 -18 8 -19 5
-26 14 -28 39 -2 24 1 32 12 32 9 0 16 -7 16 -15 0 -8 5 -15 11 -15 6 0 9 8 7
18 -4 21 -39 27 -56 10z"/>
<path d="M463 123 c0 -24 5 -43 11 -43 6 0 11 17 11 37 0 27 4 38 15 38 11 0
15 -11 15 -38 0 -20 5 -37 10 -37 6 0 9 19 7 45 -4 43 -5 44 -36 43 -32 -1
-33 -3 -33 -45z"/>
<path d="M880 163 c1 -5 7 -19 15 -33 21 -37 19 -67 -6 -73 -12 -3 -18 -10
-14 -17 11 -18 34 8 61 68 27 62 27 62 15 62 -5 0 -11 -14 -15 -32 -7 -35 -26
-28 -29 11 -1 19 -28 32 -27 14z"/>
<path d="M1078 123 c-2 -33 0 -43 12 -43 11 0 15 11 15 37 0 27 4 38 15 38 11
0 15 -11 15 -38 0 -20 5 -37 10 -37 6 0 9 19 7 45 -4 43 -5 44 -37 43 -32 -1
-33 -3 -37 -45z"/>
<path d="M1241 151 c-6 -11 -11 -27 -11 -35 0 -21 46 -50 62 -40 9 6 5 10 -12
14 -20 5 -25 12 -25 35 0 20 5 30 15 30 8 0 14 -6 13 -12 -2 -7 2 -13 8 -13 6
0 9 8 7 18 -5 25 -44 28 -57 3z"/>
<path d="M1415 124 c0 -24 5 -44 10 -44 6 0 10 17 10 37 0 31 3 37 18 35 9 -2
17 2 17 7 0 5 -12 9 -28 9 -26 -1 -27 -4 -27 -44z"/>
<path d="M1487 163 c-4 -3 -7 -11 -7 -17 0 -6 5 -5 12 2 16 16 28 15 28 -1 0
-7 -9 -18 -20 -25 -28 -17 -26 -44 3 -41 12 2 27 0 34 -4 9 -5 10 3 7 30 -3
21 -7 44 -10 51 -4 13 -36 17 -47 5z m33 -58 c0 -8 -4 -15 -10 -15 -5 0 -10 7
-10 15 0 8 5 15 10 15 6 0 10 -7 10 -15z"/>
<path d="M1630 125 c0 -29 4 -45 13 -45 8 0 11 14 9 45 -2 25 -8 45 -13 45 -5
0 -9 -20 -9 -45z"/>
<path d="M1775 123 c0 -23 5 -43 10 -43 6 0 10 17 10 37 0 27 4 38 15 38 11 0
15 -11 15 -38 0 -24 5 -37 14 -37 8 0 11 6 7 16 -3 9 -6 29 -6 45 0 26 -3 28
-33 27 -32 -1 -32 -2 -32 -45z"/>
<path d="M2035 126 c0 -34 4 -46 18 -50 19 -5 22 5 7 20 -14 14 5 68 20 59 5
-3 10 -1 10 4 0 6 -12 11 -28 11 -26 0 -28 -2 -27 -44z"/>
<path d="M2112 158 c-17 -17 -15 -54 4 -72 19 -20 29 -20 48 0 30 29 14 84
-24 84 -9 0 -21 -5 -28 -12z m46 -36 c3 -27 0 -32 -17 -32 -17 0 -21 6 -21 36
0 28 3 35 18 32 11 -2 18 -14 20 -36z"/>
<path d="M2199 163 c-3 -22 4 -69 12 -79 5 -6 21 -9 36 -7 26 4 28 7 25 49 -2
24 -8 44 -13 44 -5 0 -8 -8 -7 -17 3 -41 -3 -63 -17 -63 -11 0 -15 11 -15 40
0 22 -4 40 -10 40 -5 0 -10 -3 -11 -7z"/>
<path d="M2298 103 c-2 -34 -2 -63 -1 -63 1 0 9 -3 18 -6 13 -5 15 -2 9 21 -5
21 -4 26 5 21 17 -11 51 22 51 48 0 33 -13 45 -47 44 l-31 -1 -4 -64z m60 41
c13 -24 3 -54 -19 -54 -14 0 -19 7 -19 28 0 43 21 57 38 26z"/>
<path d="M2407 114 c-13 -14 -7 -32 11 -30 9 2 17 9 17 16 0 15 -18 24 -28 14z"/>
</g>
</svg>
