<!-- Generated by IcoMoon.io -->
<svg version="1.1" xmlns="http://www.w3.org/2000/svg" width="2370" height="1024" viewBox="0 0 2370 1024">
<title></title>
<g id="icomoon-ignore">
</g>
<path fill="#000" d="M1995.852 113.778c-128.948 18.015-206.696 120.415-207.644 270.222-0.948 68.267 2.844 83.437 31.289 141.274 24.652 50.252 40.77 70.163 73.956 91.022 76.8 49.304 182.044 58.785 288.237 26.548l36.978-10.43v-87.23c0-88.178 7.585-109.037 38.874-109.037 9.481 0 19.911-4.741 22.756-9.481 3.793-5.689-30.341-9.481-93.867-9.481-60.681 0-100.504 3.793-100.504 9.481 0 4.741 10.43 9.481 22.756 9.481 36.978 0 44.563 19.911 41.719 106.193l-2.844 78.696h-71.111c-86.281 0-133.689-21.807-173.511-76.8-54.993-77.748-54.993-236.089 0-324.267 37.926-61.63 68.267-80.593 134.637-85.333 73.956-5.689 121.363 16.119 142.222 66.37 21.807 52.148 39.822 47.407 33.185-9.481-7.585-66.37-8.533-66.37-57.837-73.007-88.178-10.43-112.83-11.378-159.289-4.741z"></path>
<path fill="#000" d="M906.43 160.237c-8.533 62.578-6.637 76.8 8.533 76.8 7.585 0 14.222-8.533 14.222-18.963 0-11.378 10.43-30.341 23.704-42.667 19.911-20.859 31.289-23.704 85.333-23.704h61.63v216.178c0 235.141-4.741 257.896-53.096 257.896-12.326 0-22.756 3.793-22.756 9.481s42.667 9.481 109.037 9.481c66.37 0 109.037-3.793 109.037-9.481s-10.43-9.481-22.756-9.481c-51.2 0-53.096-10.43-53.096-252.207v-221.867h59.733c69.215 0 96.711 15.17 106.193 56.889 3.793 17.067 12.326 28.444 20.859 28.444 11.378 0 13.274-7.585 8.533-36.030-2.844-18.963-5.689-45.511-5.689-58.785v-23.704h-443.733l-5.689 41.719z"></path>
<path fill="#000" d="M1479.111 132.741c0 4.741 8.533 9.481 18.015 9.481 45.511 0 48.356 15.17 48.356 245.57 0 227.556-1.896 237.985-44.563 237.985-12.326 0-21.807 3.793-21.807 9.481s39.822 9.481 99.556 9.481c59.733 0 99.556-3.793 99.556-9.481s-8.533-9.481-18.015-9.481c-42.667 0-48.356-29.393-48.356-234.193 0-105.244 3.793-201.956 9.481-215.23 4.741-13.274 18.963-26.548 33.185-30.341 51.2-13.274 18.963-22.756-75.852-22.756-59.733 0-99.556 3.793-99.556 9.481z"></path>
<path fill="#000" d="M82.489 831.526c-3.793 2.844-6.637 10.43-6.637 16.119s4.741 4.741 11.378-1.896c22.756-22.756 28.444-10.43 24.652 49.304-2.844 50.252-0.948 58.785 11.378 55.941 11.378-2.844 13.274-15.17 11.378-59.733-3.793-55.941 2.844-67.319 24.652-45.511 8.533 8.533 11.378 7.585 11.378-4.741s-8.533-16.119-40.77-16.119c-22.756 0-44.563 2.844-47.407 6.637z"></path>
<path fill="#000" d="M339.437 886.519c-1.896 50.252 0 61.63 11.378 61.63 10.43 0 14.222-10.43 14.222-35.081 0-25.6 3.793-36.030 14.222-36.030s14.222 10.43 14.222 36.030c0 18.963 4.741 35.081 9.481 35.081 5.689 0 8.533-18.015 5.689-43.615-2.844-39.822-4.741-43.615-25.6-38.874-18.963 2.844-22.756 0-22.756-18.015 0-12.326-3.793-22.756-8.533-22.756s-10.43 27.496-12.326 61.63z"></path>
<path fill="#000" d="M621.037 886.519c0 35.081 3.793 61.63 9.481 61.63s8.533-24.652 6.637-61.63c-4.741-79.644-16.119-79.644-16.119 0z"></path>
<path fill="#000" d="M971.852 889.363c0 53.096 2.844 64.474 14.222 61.63 20.859-5.689 20.859-126.104 0-126.104-11.378 0-14.222 13.274-14.222 64.474z"></path>
<path fill="#000" d="M1545.481 840.059c0 7.585 4.741 11.378 9.481 8.533 5.689-3.793 7.585-10.43 4.741-15.17-8.533-13.274-14.222-10.43-14.222 6.637z"></path>
<path fill="#000" d="M1836.563 836.267c-28.444 21.807-30.341 67.319-4.741 97.659 18.963 21.807 28.444 25.6 48.356 19.911 20.859-4.741 25.6-11.378 25.6-34.133 0-18.963-4.741-28.444-14.222-28.444-10.43 0-13.274 6.637-8.533 22.756 6.637 29.393-6.637 36.978-32.237 18.963-22.756-15.17-27.496-50.252-11.378-80.593 11.378-19.911 43.615-24.652 50.252-6.637 1.896 6.637 7.585 9.481 11.378 5.689 11.378-10.43-4.741-26.548-27.496-26.548-11.378 0-28.444 5.689-36.978 11.378z"></path>
<path fill="#000" d="M1121.659 855.23c-3.793 6.637-5.689 27.496-3.793 45.511 2.844 36.978 22.756 65.422 33.185 48.356 3.793-5.689 1.896-10.43-2.844-10.43-12.326 0-14.222-63.526-1.896-68.267 4.741-1.896 2.844-8.533-3.793-14.222-10.43-9.481-15.17-9.481-20.859-0.948z"></path>
<path fill="#000" d="M1487.644 855.23c-4.741 59.733 17.067 120.415 33.185 93.867 3.793-5.689 1.896-10.43-2.844-10.43-5.689 0-10.43-15.17-10.43-33.185s4.741-33.185 10.43-33.185c5.689 0 3.793-6.637-4.741-14.222-17.067-17.067-24.652-18.015-25.6-2.844z"></path>
<path fill="#000" d="M274.963 872.296c-10.43 10.43-18.963 27.496-18.963 37.926 0 22.756 41.719 52.148 58.785 41.719 8.533-5.689 4.741-9.481-11.378-13.274-18.963-4.741-23.704-11.378-23.704-33.185 0-23.704 3.793-28.444 21.807-27.496 23.704 0.948 28.444-10.43 6.637-18.963-8.533-2.844-22.756 2.844-33.185 13.274z"></path>
<path fill="#000" d="M540.444 872.296c-22.756 22.756-23.704 36.030-3.793 64.474 18.963 27.496 37.926 26.548 56.889-2.844 29.393-45.511-16.119-98.607-53.096-61.63zM585.956 898.844c4.741 30.341-15.17 53.096-32.237 38.874-14.222-11.378-18.015-48.356-6.637-59.733 13.274-12.326 36.030 0 38.874 20.859z"></path>
<path fill="#000" d="M679.822 863.763c-22.756 13.274-21.807 71.111 1.896 84.385 24.652 13.274 47.407 2.844 54.044-24.652 10.43-42.667-22.756-77.748-55.941-59.733zM718.696 906.43c1.896 19.911-1.896 31.289-11.378 35.081-18.963 7.585-36.978-25.6-29.393-51.2 9.481-29.393 36.978-18.015 40.77 16.119z"></path>
<path fill="#000" d="M762.311 869.452c-16.119 16.119-17.067 23.704-3.793 36.978 7.585 7.585 6.637 18.015 0 36.978-17.067 45.511 18.963 69.215 51.2 34.133 19.911-21.807 13.274-38.874-14.222-38.874-22.756 0-23.704-15.17 0-21.807 9.481-1.896 18.963-15.17 21.807-28.444 3.793-19.911 0-24.652-18.015-28.444-12.326-1.896-29.393 1.896-36.978 9.481zM796.444 891.259c0 10.43-6.637 18.963-14.222 18.963s-14.222-8.533-14.222-18.963c0-10.43 6.637-18.963 14.222-18.963s14.222 8.533 14.222 18.963zM805.926 962.37c0 7.585-8.533 14.222-18.963 14.222s-18.963-6.637-18.963-14.222c0-7.585 8.533-14.222 18.963-14.222s18.963 6.637 18.963 14.222z"></path>
<path fill="#000" d="M1267.674 863.763c-20.859 12.326-17.067 111.881 4.741 126.104 18.963 11.378 45.511-7.585 45.511-33.185 0-12.326-6.637-18.015-20.859-18.015-18.015 0-21.807-5.689-24.652-34.133-0.948-23.704 1.896-32.237 9.481-29.393 6.637 1.896 12.326 13.274 11.378 24.652-0.948 30.341 12.326 23.704 17.067-7.585 4.741-30.341-15.17-43.615-42.667-28.444zM1303.704 956.681c2.844 4.741 0.948 12.326-4.741 15.17-14.222 8.533-40.77-2.844-33.185-14.222 7.585-12.326 30.341-12.326 37.926-0.948z"></path>
<path fill="#000" d="M1604.267 868.504c-25.6 18.015-26.548 52.148-2.844 73.956 27.496 24.652 57.837 5.689 57.837-36.978 0-41.719-25.6-57.837-54.993-36.978zM1645.037 891.259c2.844 9.481 0.948 27.496-4.741 37.926-8.533 16.119-13.274 18.015-24.652 8.533-13.274-11.378-18.015-48.356-6.637-58.785 12.326-12.326 30.341-6.637 36.030 12.326z"></path>
<path fill="#000" d="M191.526 874.193c-26.548 26.548 0.948 91.97 33.185 79.644 7.585-2.844 17.067-5.689 19.911-6.637 3.793-0.948-3.793-3.793-17.067-7.585-18.015-4.741-24.652-13.274-26.548-36.978-1.896-22.756 0.948-30.341 11.378-30.341 8.533 0 15.17 6.637 15.17 14.222s4.741 14.222 10.43 14.222c5.689 0 8.533-7.585 6.637-17.067-3.793-19.911-36.978-25.6-53.096-9.481z"></path>
<path fill="#000" d="M438.993 907.378c0 22.756 4.741 40.77 10.43 40.77s10.43-16.119 10.43-35.081c0-25.6 3.793-36.030 14.222-36.030s14.222 10.43 14.222 36.030c0 18.963 4.741 35.081 9.481 35.081 5.689 0 8.533-18.015 6.637-42.667-3.793-40.77-4.741-41.719-34.133-40.77-30.341 0.948-31.289 2.844-31.289 42.667z"></path>
<path fill="#000" d="M834.37 869.452c0.948 4.741 6.637 18.015 14.222 31.289 19.911 35.081 18.015 63.526-5.689 69.215-11.378 2.844-17.067 9.481-13.274 16.119 10.43 17.067 32.237-7.585 57.837-64.474 25.6-58.785 25.6-58.785 14.222-58.785-4.741 0-10.43 13.274-14.222 30.341-6.637 33.185-24.652 26.548-27.496-10.43-0.948-18.015-26.548-30.341-25.6-13.274z"></path>
<path fill="#000" d="M1022.104 907.378c-1.896 31.289 0 40.77 11.378 40.77 10.43 0 14.222-10.43 14.222-35.081 0-25.6 3.793-36.030 14.222-36.030s14.222 10.43 14.222 36.030c0 18.963 4.741 35.081 9.481 35.081 5.689 0 8.533-18.015 6.637-42.667-3.793-40.77-4.741-41.719-35.081-40.77s-31.289 2.844-35.081 42.667z"></path>
<path fill="#000" d="M1176.652 880.83c-5.689 10.43-10.43 25.6-10.43 33.185 0 19.911 43.615 47.407 58.785 37.926 8.533-5.689 4.741-9.481-11.378-13.274-18.963-4.741-23.704-11.378-23.704-33.185 0-18.963 4.741-28.444 14.222-28.444 7.585 0 13.274 5.689 12.326 11.378-1.896 6.637 1.896 12.326 7.585 12.326s8.533-7.585 6.637-17.067c-4.741-23.704-41.719-26.548-54.044-2.844z"></path>
<path fill="#000" d="M1341.63 906.43c0 22.756 4.741 41.719 9.481 41.719 5.689 0 9.481-16.119 9.481-35.081 0-29.393 2.844-35.081 17.067-33.185 8.533 1.896 16.119-1.896 16.119-6.637s-11.378-8.533-26.548-8.533c-24.652 0.948-25.6 3.793-25.6 41.719z"></path>
<path fill="#000" d="M1409.896 869.452c-3.793 2.844-6.637 10.43-6.637 16.119s4.741 4.741 11.378-1.896c15.17-15.17 26.548-14.222 26.548 0.948 0 6.637-8.533 17.067-18.963 23.704-26.548 16.119-24.652 41.719 2.844 38.874 11.378-1.896 25.6 0 32.237 3.793 8.533 4.741 9.481-2.844 6.637-28.444-2.844-19.911-6.637-41.719-9.481-48.356-3.793-12.326-34.133-16.119-44.563-4.741zM1441.185 924.444c0 7.585-3.793 14.222-9.481 14.222-4.741 0-9.481-6.637-9.481-14.222s4.741-14.222 9.481-14.222c5.689 0 9.481 6.637 9.481 14.222z"></path>
<path fill="#000" d="M1545.481 905.481c0 27.496 3.793 42.667 12.326 42.667 7.585 0 10.43-13.274 8.533-42.667-1.896-23.704-7.585-42.667-12.326-42.667s-8.533 18.963-8.533 42.667z"></path>
<path fill="#000" d="M1682.963 907.378c0 21.807 4.741 40.77 9.481 40.77 5.689 0 9.481-16.119 9.481-35.081 0-25.6 3.793-36.030 14.222-36.030s14.222 10.43 14.222 36.030c0 22.756 4.741 35.081 13.274 35.081 7.585 0 10.43-5.689 6.637-15.17-2.844-8.533-5.689-27.496-5.689-42.667 0-24.652-2.844-26.548-31.289-25.6-30.341 0.948-30.341 1.896-30.341 42.667z"></path>
<path fill="#000" d="M1929.481 904.533c0 32.237 3.793 43.615 17.067 47.407 18.015 4.741 20.859-4.741 6.637-18.963-13.274-13.274 4.741-64.474 18.963-55.941 4.741 2.844 9.481 0.948 9.481-3.793 0-5.689-11.378-10.43-26.548-10.43-24.652 0-26.548 1.896-25.6 41.719z"></path>
<path fill="#000" d="M2002.489 874.193c-16.119 16.119-14.222 51.2 3.793 68.267 18.015 18.963 27.496 18.963 45.511 0 28.444-27.496 13.274-79.644-22.756-79.644-8.533 0-19.911 4.741-26.548 11.378zM2046.104 908.326c2.844 25.6 0 30.341-16.119 30.341s-19.911-5.689-19.911-34.133c0-26.548 2.844-33.185 17.067-30.341 10.43 1.896 17.067 13.274 18.963 34.133z"></path>
<path fill="#000" d="M2084.978 869.452c-2.844 20.859 3.793 65.422 11.378 74.904 4.741 5.689 19.911 8.533 34.133 6.637 24.652-3.793 26.548-6.637 23.704-46.459-1.896-22.756-7.585-41.719-12.326-41.719s-7.585 7.585-6.637 16.119c2.844 38.874-2.844 59.733-16.119 59.733-10.43 0-14.222-10.43-14.222-37.926 0-20.859-3.793-37.926-9.481-37.926-4.741 0-9.481 2.844-10.43 6.637z"></path>
<path fill="#000" d="M2178.844 926.341c-1.896 32.237-1.896 59.733-0.948 59.733s8.533 2.844 17.067 5.689c12.326 4.741 14.222 1.896 8.533-19.911-4.741-19.911-3.793-24.652 4.741-19.911 16.119 10.43 48.356-20.859 48.356-45.511 0-31.289-12.326-42.667-44.563-41.719l-29.393 0.948-3.793 60.681zM2235.733 887.467c12.326 22.756 2.844 51.2-18.015 51.2-13.274 0-18.015-6.637-18.015-26.548 0-40.77 19.911-54.044 36.030-24.652z"></path>
<path fill="#000" d="M2282.193 915.911c-12.326 13.274-6.637 30.341 10.43 28.444 8.533-1.896 16.119-8.533 16.119-15.17 0-14.222-17.067-22.756-26.548-13.274z"></path>
</svg>
